<svg width="85" height="14" viewBox="0 0 85 14" fill="none" xmlns="http://www.w3.org/2000/svg">
<path d="M0.738 13H2.718V7.87H3.654C5.634 7.87 6.606 6.772 6.606 4.756V3.514C6.606 1.498 5.634 0.399999 3.654 0.399999H0.738V13ZM2.718 6.07V2.2H3.654C4.284 2.2 4.626 2.488 4.626 3.388V4.882C4.626 5.782 4.284 6.07 3.654 6.07H2.718ZM12.3434 13.18C14.2874 13.18 15.3494 12.028 15.3494 10.012V3.388C15.3494 1.372 14.2874 0.219999 12.3434 0.219999C10.3994 0.219999 9.33736 1.372 9.33736 3.388V10.012C9.33736 12.028 10.3994 13.18 12.3434 13.18ZM12.3434 11.38C11.7134 11.38 11.3174 11.038 11.3174 10.138V3.262C11.3174 2.362 11.7134 2.02 12.3434 2.02C12.9734 2.02 13.3694 2.362 13.3694 3.262V10.138C13.3694 11.038 12.9734 11.38 12.3434 11.38ZM19.2984 13H21.9264L22.8264 4.504H22.8624L23.7624 13H26.2284L27.5064 0.399999H25.7964L24.9144 10.084H24.8784L23.9424 0.399999H21.7824L20.8464 10.084H20.8104L19.9284 0.399999H18.0204L19.2984 13ZM30.3079 13H35.7079V11.2H32.2879V7.33H35.0059V5.53H32.2879V2.2H35.7079V0.399999H30.3079V13ZM38.647 13H40.627V7.6H41.311C42.211 7.6 42.553 7.978 42.553 9.148V11.452C42.553 12.478 42.625 12.676 42.733 13H44.749C44.551 12.532 44.533 12.082 44.533 11.47V9.256C44.533 7.834 44.209 6.898 43.219 6.592V6.556C44.101 6.196 44.515 5.368 44.515 4.072V3.298C44.515 1.354 43.633 0.399999 41.581 0.399999H38.647V13ZM40.627 5.8V2.2H41.527C42.229 2.2 42.535 2.596 42.535 3.496V4.468C42.535 5.476 42.085 5.8 41.347 5.8H40.627ZM47.7068 13H53.1068V11.2H49.6868V7.33H52.4048V5.53H49.6868V2.2H53.1068V0.399999H47.7068V13ZM56.0458 13H59.0698C61.0498 13 62.0218 11.902 62.0218 9.886V3.514C62.0218 1.498 61.0498 0.399999 59.0698 0.399999H56.0458V13ZM58.0258 11.2V2.2H59.0338C59.6638 2.2 60.0418 2.524 60.0418 3.424V9.976C60.0418 10.876 59.6638 11.2 59.0338 11.2H58.0258ZM69.8411 13H72.9551C74.9351 13 75.9611 11.956 75.9611 10.012V8.932C75.9611 7.6 75.5471 6.664 74.4851 6.304V6.268C75.3671 5.908 75.7631 5.098 75.7631 3.802V3.298C75.7631 1.354 74.8811 0.399999 72.8291 0.399999H69.8411V13ZM71.8211 5.53V2.2H72.7751C73.4771 2.2 73.7831 2.596 73.7831 3.496V4.198C73.7831 5.206 73.3331 5.53 72.5951 5.53H71.8211ZM71.8211 11.2V7.33H72.7031C73.6031 7.33 73.9811 7.69 73.9811 8.86V9.958C73.9811 10.894 73.6211 11.2 72.9551 11.2H71.8211ZM80.4552 13H82.4352V7.636L84.8292 0.399999H82.9032L81.5532 5.026H81.5172L80.1672 0.399999H78.0612L80.4552 7.636V13Z" fill="#CB30FF"/>
</svg>
